
<svg version="1.1" id="Layer_1" focusable="false" xmlns="http://www.w3.org/2000/svg" xmlns:xlink="http://www.w3.org/1999/xlink" x="0px" y="0px" width="400px" height="262px" viewBox="0 0 400 262" enable-background="new 0 0 400 262" xml:space="preserve"><path fill="#FFFFFF" stroke="#FFFFFF" stroke-miterlimit="10" d="M298.25,106.438h-73.688V32.75c0-9.042-7.333-16.375-16.375-16.375 h-16.375c-9.042,0-16.375,7.333-16.375,16.375v73.688H101.75c-9.042,0-16.375,7.333-16.375,16.375v16.375 c0,9.042,7.333,16.375,16.375,16.375h73.688v73.688c0,9.042,7.333,16.375,16.375,16.375h16.375c9.042,0,16.375-7.333,16.375-16.375 v-73.688h73.688c9.042,0,16.375-7.333,16.375-16.375v-16.375C314.625,113.771,307.292,106.438,298.25,106.438z"/></svg>
