<svg xmlns="http://www.w3.org/2000/svg" width="249.988" height="69.08" viewBox="131.006 219.702 249.988 69.08"  fill="#1273eb" xmlns:v="https://vecta.io/nano"><path d="M146.39 237.817c-1.628 1.686-3.042 3.542-4.155 5.528l-1.757-.906c-.258-1.125-1.33-1.901-2.486-1.771-1.244.13-2.144 1.296-1.971 2.547.127 1.252 1.286 2.162 2.527 1.987.258-.044.472-.086.685-.216l1.716.906c-.942 2.116-1.629 4.318-2.014 6.609l2.829.516c.854-4.964 3.212-9.5 6.726-13.17l-2.1-2.03zm20.656-8.722l-1.93.041-.255-2.376c.687-.562 1.113-1.467.984-2.462-.169-1.512-1.499-2.548-2.998-2.372-1.501.17-2.531 1.511-2.357 3.021.129.951.729 1.771 1.543 2.117l.255 2.376c-2.699.431-5.271 1.251-7.755 2.462l1.242 2.589a25.96 25.96 0 0 1 11.271-2.548c1.886 0 3.728.215 5.57.605l.6-2.808c-2.014-.429-4.114-.645-6.17-.645h0zm24.856 9.628c1.241-.171 2.144-1.296 1.97-2.547s-1.286-2.157-2.527-1.986c-1.159.13-2.015 1.166-2.015 2.291l-1.588 1.381c-1.584-1.641-3.341-3.066-5.312-4.318l-1.502 2.418c4.287 2.722 7.586 6.564 9.643 11.099l2.615-1.166c-.943-2.116-2.144-4.059-3.558-5.874l1.5-1.337c.258.084.516.084.774.039h0zm-26.914 29.066l-4.369.133c-3.3 0-6.516-.216-9.344-.69a31.51 31.51 0 0 1-4.8-1.129c3.944 7.04 11.572 11.837 20.271 11.837 10.757 0 19.799-7.255 22.412-17.102-2.571 1.687-5.656 3.111-9.256 4.277-4.413 1.464-9.555 2.372-14.914 2.674h0zm2.058-32.95c-12.6 0-22.885 10.104-22.885 22.547a22.48 22.48 0 0 0 .516 4.788c2.527 1.813 10.199 3.372 20.141 2.764 10.841-.646 19.927-3.624 25.113-8.208 0-.73-.088-1.461-.173-2.196-1.455-11.232-11.184-19.695-22.712-19.695h0zm-8.143 24.699c-3.857 0-6.94-3.147-6.94-6.995 0-3.884 3.128-6.995 6.94-6.995 3.857 0 6.942 3.152 6.942 6.995.045 3.848-3.085 6.995-6.942 6.995zm17.827-3.453c-2.828 0-5.098-2.331-5.098-5.139 0-2.852 2.313-5.139 5.098-5.139 2.829 0 5.101 2.332 5.101 5.139.042 2.853-2.272 5.139-5.101 5.139zm50.524-14.165c-1.112-.431-3.042-1.166-5.185-.906-2.056.261-3.169 1.296-3.169 3.799v3.282h8.399v6.524H218.9v20.686h-7.285v-20.686h-5.057v-6.479h5.057v-3.368c0-6.395 3.385-10.538 9.684-10.538 2.402 0 4.373.475 6 1.166l-.045 6.52zm17.743 12.654c-.685-.13-1.329-.171-1.97-.171-3.385 0-5.702 2.067-5.702 6.129v14.817h-7.286v-27.211h7.03v2.981c1.714-2.551 4.285-3.717 7.585-3.717 1.543 0 3.171.476 4.114 1.296l-3.771 5.876zm28.841 7.125c0 .825-.044 1.857-.132 2.466h-19.154c.774 3.928 3.514 5.658 6.947 5.658 2.353 0 4.885-.95 6.812-2.591l4.238 4.707c-3.079 2.846-6.983 4.146-11.485 4.146-8.269 0-14.011-5.658-14.011-14.251 0-8.556 5.573-14.385 13.673-14.385 7.757-.045 13.068 5.744 13.112 14.25h0zm-19.242-2.548h11.957c-.686-3.497-2.74-5.438-5.872-5.438-3.469 0-5.443 2.067-6.085 5.438h0zm48.039 2.548c0 .825-.044 1.857-.125 2.466h-19.161c.774 3.928 3.514 5.658 6.947 5.658 2.357 0 4.885-.95 6.814-2.591l4.243 4.707c-3.087 2.846-6.991 4.146-11.484 4.146-8.274 0-14.02-5.658-14.02-14.251 0-8.556 5.577-14.385 13.672-14.385 7.758-.045 13.07 5.744 13.114 14.25h0zm-19.241-2.548h11.955c-.685-3.497-2.741-5.438-5.871-5.438-3.426 0-5.445 2.067-6.084 5.438h0zm50.653 2.548c0 8.161-5.613 14.341-13.068 14.341-3.648 0-6.174-1.426-7.926-3.542v14.078h-7.244V248.14h7.109v3.021c1.762-2.201 4.333-3.713 8.061-3.713 7.455-.044 13.068 6.09 13.068 14.251h0zm-21.387 0c0 4.277 2.829 7.516 6.948 7.516 4.279 0 6.983-3.327 6.983-7.516s-2.66-7.516-6.983-7.516c-4.119.046-6.948 3.239-6.948 7.516zm33.086-22.501c0 2.636-2.013 4.668-4.671 4.668-2.615 0-4.627-2.031-4.627-4.668s2.012-4.708 4.627-4.708 4.671 2.075 4.671 4.708zm-.988 36.107h-7.286v-27.21h7.286v27.21zm12.133-17.489l10.15-9.677h8.915l-13.113 12.783L376 275.305h-8.959l-10.238-11.014v11.014h-7.286V234.88h7.286v22.937h.088z"/></svg>