<svg version="1.1" id="Layer_1" xmlns="http://www.w3.org/2000/svg" xmlns:xlink="http://www.w3.org/1999/xlink" x="0px" y="0px"
	 width="24.667px" height="40.333px" viewBox="0 0 24.667 40.333" enable-background="new 0 0 24.667 40.333" xml:space="preserve">
<g>
	<path fill="none" d="M21.06,21.367c-0.687,0-0.945,1.013-1.223,1.625c-0.258,0.572-0.256,1.286-0.369,1.939
		c-0.313-0.014-0.629-0.03-0.945-0.044c0-1.226,0.124-2.47-0.055-3.662c-0.081-0.544-0.243-1.46-1.166-1.46
		c-0.676,0-0.945,0.881-1.196,1.443c-0.199,0.449,0.022,1.108-0.095,1.631c-0.087,0.389-0.059,1.053-0.649,1.053
		c-0.504,0-0.504-0.14-0.504-1.009c0-1.043-0.124-2.102-0.095-3.123c0.018-0.656-0.224-1.708-1.159-1.708
		c-0.847,0-1.209,1.063-1.252,1.803c-0.06,0.996,0.041,1.093-0.063,1.639c-0.099,0.521,0.038,1.496-0.58,1.496
		c-0.549,0-0.604-0.987-0.614-1.488c-0.059-3.198-0.029-6.4-0.036-9.6c-0.003-0.991-0.022-2.084-1.188-2.084
		c-0.035,0-0.071,0.001-0.107,0.003c-1.11,0.06-1.17,1.076-1.164,2.059c0.027,3.63,0.066,7.262,0.03,10.892
		c-0.01,0.987-0.271,1.968-0.417,2.957c-0.722-0.559-1.506-1.042-2.149-1.695c-0.48-0.487-0.939-1.003-1.484-1.003
		c-0.244,0-0.505,0.104-0.793,0.359c-0.965,0.859-0.368,1.711,0.164,2.559c1.67,2.668,3.315,5.356,4.952,8.045
		c1.512,2.491,3.536,3.699,5.991,3.699c0.479,0,0.974-0.047,1.484-0.138c2.576-0.459,4.544-2.097,5.043-4.938
		c0.55-3.119,0.624-6.354,0.754-9.541C22.199,22.524,22.175,21.367,21.06,21.367z"/>
	<path d="M22.905,20.619c-0.328-0.343-0.915-0.751-1.845-0.751c-0.521,0-0.936,0.163-1.268,0.407
		c-0.517-1.728-1.747-2.008-2.49-2.008c-0.475,0-0.864,0.134-1.184,0.339c-0.12-0.438-0.338-0.91-0.724-1.306
		c-0.469-0.481-1.105-0.747-1.791-0.747c-0.375,0-0.728,0.082-1.046,0.234c0-0.709,0-1.416,0.001-2.114
		c0.001-0.925,0.002-1.85,0-2.775c-0.008-2.377-0.912-3.581-2.688-3.581c-0.061,0-0.124,0.001-0.188,0.005
		c-1.728,0.094-2.597,1.293-2.583,3.565l0.012,1.566c0.024,3.051,0.049,6.207,0.018,9.302c0,0.071-0.003,0.142-0.007,0.214
		l-0.102-0.104c-0.553-0.564-1.31-1.337-2.442-1.337c-0.636,0-1.237,0.248-1.788,0.737c-1.879,1.673-0.683,3.571-0.172,4.382
		l0.061,0.095c1.744,2.785,3.476,5.621,4.941,8.028c1.754,2.89,4.269,4.419,7.272,4.419c0.563,0,1.151-0.055,1.748-0.161
		c3.396-0.604,5.676-2.848,6.257-6.154c0.508-2.885,0.623-5.85,0.734-8.717l0.041-1.022C23.691,22.731,23.744,21.495,22.905,20.619z
		 M22.175,23.074c-0.13,3.186-0.204,6.421-0.754,9.541c-0.499,2.841-2.467,4.479-5.043,4.938c-0.511,0.091-1.006,0.138-1.484,0.138
		c-2.456,0-4.479-1.208-5.991-3.699c-1.636-2.688-3.281-5.377-4.952-8.045c-0.532-0.848-1.129-1.699-0.164-2.559
		c0.288-0.255,0.549-0.359,0.793-0.359c0.545,0,1.004,0.517,1.484,1.003c0.643,0.653,1.427,1.137,2.149,1.695
		c0.146-0.988,0.407-1.97,0.417-2.957c0.036-3.63-0.003-7.262-0.03-10.892C8.595,10.896,8.655,9.88,9.765,9.82
		c0.037-0.002,0.073-0.003,0.107-0.003c1.166,0,1.185,1.093,1.188,2.084c0.006,3.2-0.023,6.402,0.036,9.6
		c0.01,0.501,0.065,1.488,0.614,1.488c0.617,0,0.481-0.974,0.58-1.496c0.104-0.545,0.003-0.643,0.063-1.639
		c0.043-0.74,0.406-1.803,1.252-1.803c0.935,0,1.176,1.053,1.159,1.708c-0.029,1.021,0.095,2.08,0.095,3.123
		c0,0.87,0,1.009,0.504,1.009c0.591,0,0.563-0.664,0.649-1.053c0.117-0.523-0.104-1.183,0.095-1.631
		c0.251-0.562,0.521-1.443,1.196-1.443c0.923,0,1.085,0.917,1.166,1.46c0.179,1.191,0.055,2.436,0.055,3.662
		c0.316,0.014,0.632,0.03,0.945,0.044c0.113-0.653,0.111-1.367,0.369-1.939c0.277-0.612,0.536-1.625,1.223-1.625
		C22.175,21.367,22.199,22.524,22.175,23.074z"/>
	<path d="M4.352,14.071c-0.714-1.185-1.109-2.586-1.109-4.034c0-4.012,2.94-7.274,6.554-7.274c3.615,0,6.555,3.263,6.555,7.274
		c0,1.448-0.395,2.85-1.109,4.034c0.249,0.238,0.485,0.491,0.708,0.758c0.88-1.393,1.369-3.065,1.369-4.792
		c0-4.603-3.375-8.347-7.523-8.347c-4.147,0-7.521,3.744-7.521,8.347c0,1.726,0.488,3.399,1.369,4.792
		C3.866,14.562,4.103,14.309,4.352,14.071z"/>
	<path d="M14.38,11.807l0.02-0.075c0.144-0.512,0.217-1.047,0.217-1.588c0-2.949-2.162-5.349-4.821-5.349
		c-2.658,0-4.819,2.4-4.819,5.349c0,0.505,0.066,1.012,0.196,1.508l0.041,0.155c0.232-0.17,0.472-0.326,0.719-0.468
		c-0.096-0.381-0.15-0.781-0.15-1.195c0-2.46,1.797-4.454,4.014-4.454c2.217,0,4.015,1.994,4.015,4.454
		c0,0.415-0.054,0.815-0.148,1.196C13.909,11.482,14.149,11.638,14.38,11.807z"/>
</g>
</svg>
