<?xml version="1.0" encoding="utf-8"?>
<!-- Generator: Adobe Illustrator 16.0.0, SVG Export Plug-In . SVG Version: 6.00 Build 0)  -->
<!DOCTYPE svg PUBLIC "-//W3C//DTD SVG 1.1//EN" "http://www.w3.org/Graphics/SVG/1.1/DTD/svg11.dtd" [
	<!ENTITY ns_flows "http://ns.adobe.com/Flows/1.0/">
	<!ENTITY ns_extend "http://ns.adobe.com/Extensibility/1.0/">
	<!ENTITY ns_ai "http://ns.adobe.com/AdobeIllustrator/10.0/">
	<!ENTITY ns_graphs "http://ns.adobe.com/Graphs/1.0/">
]>
<svg version="1.1" id="Layer_1" xmlns:x="&ns_extend;" xmlns:i="&ns_ai;" xmlns:graph="&ns_graphs;"
	 xmlns="http://www.w3.org/2000/svg" xmlns:xlink="http://www.w3.org/1999/xlink" xmlns:a="http://ns.adobe.com/AdobeSVGViewerExtensions/3.0/"
	 x="0px" y="0px" width="47.75px" height="26px" viewBox="16.55 27.19 47.75 26" enable-background="new 16.55 27.19 47.75 26"
	 xml:space="preserve">
<g>
	<g>
		<path fill="#F2662B" d="M26.87,36.4c-5.31,0.73-9.32,3.9-9.32,3.9l9.32,0V36.4z"/>
		<path fill="#F78D2A" d="M26.87,40.3l-9.32,0c0,0,4.02,3.17,9.32,3.9V40.3z"/>
	</g>
	<g>
		<path fill="#FEC40D" d="M26.96,37.34c-3.67,0.88-6.3,2.96-6.3,2.96h6.3V37.34z"/>
		<path fill="#FBAA19" d="M26.96,40.3h-6.3c0,0,2.63,2.07,6.3,2.96V40.3z"/>
	</g>
	<g>
		<g>
			<polygon fill="#EF4645" points="30.92,45.94 22.88,52.18 33.93,52.18 38.75,45.94 			"/>
			<polygon fill="#CC2527" points="35.47,45.94 30.92,45.94 25.55,50.11 32.25,50.11 			"/>
		</g>
		<g>
			<polygon fill="#EF4645" points="30.92,34.67 22.88,28.43 33.93,28.43 38.75,34.67 			"/>
			<polygon fill="#CC2527" points="35.47,34.67 30.92,34.67 25.55,30.51 32.25,30.51 			"/>
		</g>
	</g>
	<g>
		<path fill="#FCB717" d="M57.8,36.27c0.22,0.13,0.44,0.25,0.65,0.38C58.24,36.52,58.02,36.39,57.8,36.27z"/>
		<path fill="#FCB717" d="M54.09,34.43c0.68,0.29,1.33,0.58,1.95,0.9C55.42,35.02,54.77,34.72,54.09,34.43z"/>
		<path fill="#EE2D40" d="M58.76,36.83c0.31,0.19,0.61,0.37,0.89,0.56C59.37,37.21,59.07,37.02,58.76,36.83z"/>
		<path fill="#FFFFFF" d="M52.43,33.78c0.57,0.21,1.13,0.42,1.67,0.65C53.55,34.2,53,33.98,52.43,33.78z"/>
		<path fill="#DC283A" d="M62.52,41.17c-0.67,0.53-1.64,1.26-2.87,2.05C60.87,42.43,61.85,41.7,62.52,41.17z"/>
		<path fill="#DC283A" d="M59.65,43.23c-0.28,0.18-0.58,0.37-0.89,0.56C59.07,43.6,59.37,43.41,59.65,43.23z"/>
		<path fill="#FCB717" d="M38.65,48.1c-0.93-0.11-1.83-0.24-2.7-0.4C36.82,47.86,37.72,47.99,38.65,48.1z"/>
		<path fill="#FCB717" d="M51.56,33.49c0.29,0.09,0.58,0.19,0.87,0.29C52.14,33.68,51.85,33.58,51.56,33.49z"/>
		<path fill="#FCB717" d="M30.75,34.31c0.28-0.1,0.56-0.2,0.86-0.3C31.32,34.1,31.03,34.21,30.75,34.31z"/>
		<path fill="#FCB717" d="M56.04,45.29c-0.62,0.31-1.27,0.61-1.95,0.89C54.77,45.9,55.42,45.6,56.04,45.29z"/>
		<path fill="#FCB717" d="M32.51,46.89c-0.31-0.09-0.61-0.19-0.9-0.29C31.9,46.71,32.2,46.8,32.51,46.89z"/>
		<path fill="#FCB717" d="M35.95,32.92c0.87-0.16,1.77-0.29,2.7-0.4C37.72,32.62,36.82,32.76,35.95,32.92z"/>
		<path fill="#FCB717" d="M34.53,33.2c0.29-0.07,0.6-0.13,0.9-0.19C35.13,33.07,34.82,33.14,34.53,33.2z"/>
		<path fill="#FCB717" d="M31.61,34.01c0.29-0.1,0.59-0.19,0.9-0.28C32.2,33.82,31.9,33.91,31.61,34.01z"/>
		<path fill="#FCB717" d="M59.65,37.39c1.22,0.79,2.2,1.52,2.87,2.05C61.85,38.91,60.87,38.18,59.65,37.39z"/>
		<path fill="#FCB717" d="M57.8,36.27c-0.21-0.12-0.42-0.24-0.63-0.35l0,0C57.38,36.03,57.59,36.15,57.8,36.27z"/>
		<path fill="#FCB717" d="M62.52,41.17c0.67-0.53,1.03-0.87,1.03-0.87s-0.36-0.33-1.03-0.87c0.67,0.53,1.03,0.87,1.03,0.87
			S63.19,40.64,62.52,41.17z"/>
		<path fill="#FCB717" d="M54.09,46.18c-0.54,0.23-1.09,0.45-1.67,0.65C53,46.63,53.55,46.41,54.09,46.18z"/>
		<path fill="#FCB717" d="M57.17,35.91c-0.37-0.2-0.74-0.39-1.13-0.59C56.43,35.52,56.8,35.72,57.17,35.91L57.17,35.91z"/>
		<path fill="#FCB717" d="M51.56,33.49c-2.35-0.76-4.93-1.26-7.64-1.26c-1.82,0-3.59,0.1-5.27,0.29c1.68-0.19,3.44-0.29,5.27-0.29
			C46.63,32.22,49.21,32.73,51.56,33.49z"/>
		<path fill="#FCB717" d="M52.43,46.83c-0.29,0.11-0.57,0.2-0.87,0.29C51.85,47.04,52.14,46.94,52.43,46.83z"/>
		<path fill="#FCB717" d="M28.11,40.31v-4.8c0.45-0.25,0.93-0.49,1.44-0.71c-0.51,0.23-0.99,0.46-1.44,0.71l0,9.6
			c0.45,0.25,0.93,0.48,1.44,0.71c-0.51-0.23-0.99-0.46-1.44-0.71L28.11,40.31z"/>
		<path fill="#FCB717" d="M56.04,45.29c0.39-0.19,0.77-0.39,1.13-0.59l0,0C56.8,44.9,56.43,45.1,56.04,45.29z"/>
		<path fill="#FCB717" d="M43.91,48.39c-1.82,0-3.59-0.1-5.27-0.29C40.33,48.29,42.09,48.39,43.91,48.39c2.71,0,5.29-0.5,7.64-1.26
			C49.21,47.89,46.63,48.39,43.91,48.39z"/>
		<path fill="#FCB717" d="M57.17,44.7c0.45-0.24,0.87-0.49,1.28-0.73C58.04,44.21,57.61,44.46,57.17,44.7L57.17,44.7z"/>
		<path fill="#FCB717" d="M32.97,33.59c0.31-0.09,0.63-0.17,0.95-0.25C33.61,33.42,33.29,33.51,32.97,33.59z"/>
		<path fill="#FCB717" d="M33.93,33.35c0.2-0.05,0.4-0.09,0.61-0.14C34.33,33.25,34.13,33.3,33.93,33.35z"/>
		<path fill="#DDDDDC" d="M28.11,40.31h29.06v-4.4c-0.37-0.2-0.74-0.39-1.13-0.59c-0.62-0.31-1.27-0.61-1.95-0.9
			c-0.54-0.23-1.09-0.45-1.67-0.65c-0.29-0.1-0.57-0.2-0.87-0.29c-2.35-0.76-4.93-1.26-7.64-1.26c-1.82,0-3.59,0.1-5.27,0.3
			c-0.93,0.11-1.83,0.24-2.7,0.4c-0.17,0.03-0.34,0.06-0.52,0.1c-0.3,0.06-0.61,0.12-0.9,0.19c-0.2,0.05-0.4,0.09-0.61,0.14
			c-0.32,0.08-0.64,0.16-0.95,0.25c-0.16,0.04-0.31,0.09-0.46,0.13c-0.31,0.09-0.61,0.18-0.9,0.28c-0.29,0.1-0.58,0.2-0.86,0.3
			c-0.42,0.16-0.82,0.32-1.2,0.49c-0.51,0.23-0.99,0.46-1.44,0.71L28.11,40.31z"/>
		<path fill="#EF4645" d="M57.17,40.31h6.38c0,0-0.36-0.33-1.03-0.87c-0.67-0.53-1.64-1.26-2.87-2.05
			c-0.28-0.18-0.58-0.37-0.89-0.56c-0.1-0.06-0.21-0.13-0.31-0.19c-0.21-0.13-0.43-0.25-0.65-0.38c-0.21-0.12-0.42-0.24-0.63-0.35
			V40.31z"/>
		<path fill="#F99B1C" d="M33.93,47.27c-0.32-0.08-0.64-0.16-0.95-0.25C33.29,47.11,33.61,47.19,33.93,47.27z"/>
		<path fill="#F99B1C" d="M35.43,47.6c-0.51-0.1-1.01-0.21-1.5-0.33C34.42,47.39,34.92,47.5,35.43,47.6z"/>
		<path fill="#C1C1C1" d="M51.56,47.13c0.29-0.1,0.58-0.19,0.87-0.3c0.57-0.21,1.13-0.42,1.67-0.65c0.68-0.29,1.33-0.59,1.95-0.89
			c0.39-0.19,0.77-0.39,1.13-0.59v-4.39H28.11v4.8c0.45,0.25,0.93,0.49,1.44,0.71c0.64,0.28,1.33,0.55,2.06,0.79
			c0.29,0.1,0.59,0.2,0.9,0.29c0.15,0.04,0.31,0.09,0.46,0.13c0.31,0.09,0.63,0.17,0.95,0.25c0.49,0.12,0.99,0.23,1.5,0.33
			c0.17,0.03,0.34,0.07,0.52,0.1c0.87,0.16,1.77,0.29,2.7,0.4c1.68,0.19,3.44,0.29,5.27,0.29C46.63,48.39,49.21,47.89,51.56,47.13z"
			/>
		<path fill="#CC2527" d="M57.17,40.31v4.39c0.45-0.24,0.87-0.49,1.28-0.73c0.1-0.06,0.21-0.13,0.31-0.19
			c0.31-0.19,0.61-0.38,0.89-0.56c1.22-0.79,2.2-1.52,2.87-2.05c0.67-0.53,1.03-0.87,1.03-0.87L57.17,40.31z"/>
	</g>
	<g>
		<path fill="#FEC40D" d="M29.21,34.95c-0.39,0.18-0.75,0.37-1.1,0.56v4.8l1.1,0V34.95z"/>
		<path fill="#FBAA19" d="M29.21,45.66v-5.35h-1.1v4.8C28.45,45.3,28.82,45.49,29.21,45.66z"/>
	</g>
	<g>
		<polygon fill="#EF4645" points="28.18,35.51 25.74,34.55 25.74,40.31 28.18,40.31 		"/>
		<polygon fill="#CC2527" points="28.18,45.11 28.18,40.31 25.74,40.31 25.74,46.06 		"/>
	</g>
	<g>
		<g>
			<path fill="#FFFFFF" d="M52.95,40.31l-14.24,0c0,3.97,3.19,7.19,7.12,7.19C49.76,47.49,52.95,44.27,52.95,40.31z"/>
			<path fill="#DDDDDC" d="M45.83,33.12c-3.93,0-7.12,3.21-7.12,7.19l14.24,0C52.95,36.34,49.76,33.12,45.83,33.12z"/>
		</g>
		<g>
			<g>
				<path fill="#16467C" d="M51.82,40.31c0-3.34-2.69-6.04-5.99-6.04v6.04H51.82z"/>
				<path fill="#183965" d="M45.83,34.27L45.83,34.27c-3.3,0-5.98,2.7-5.98,6.04h5.98V34.27z"/>
			</g>
			<g>
				<path fill="#183965" d="M51.82,40.31h-5.99v6.04C49.13,46.35,51.82,43.64,51.82,40.31z"/>
				<path fill="#16467C" d="M45.83,40.31h-5.98c0,3.34,2.68,6.04,5.98,6.04l0,0V40.31z"/>
			</g>
		</g>
		<path fill="#FFFFFF" d="M47.17,37.49c-0.43,0-0.78-0.35-0.78-0.79l0,0c0-0.43,0.35-0.79,0.78-0.79l1.11,0
			c0.43,0,0.79,0.35,0.79,0.79l0,0c0,0.44-0.35,0.79-0.79,0.79H47.17z"/>
	</g>
</g>
</svg>
