<?xml version="1.0" encoding="utf-8"?>
<!-- Generator: Adobe Illustrator 16.0.0, SVG Export Plug-In . SVG Version: 6.00 Build 0)  -->
<!DOCTYPE svg PUBLIC "-//W3C//DTD SVG 1.1//EN" "http://www.w3.org/Graphics/SVG/1.1/DTD/svg11.dtd">
<svg version="1.1" id="Layer_1" xmlns="http://www.w3.org/2000/svg" xmlns:xlink="http://www.w3.org/1999/xlink" x="0px" y="0px"
	 width="252.54px" height="153.16px" viewBox="0 0 252.54 153.16" enable-background="new 0 0 252.54 153.16" xml:space="preserve">
<g>
	<g>
		<path fill="#FF0000" d="M55.733,127.847c-1.688,0-3.01-0.61-3.929-1.814c-0.829-1.123-1.191-2.801-1.191-5.461v-1.997
			c0-0.901,0.353-2.297,0.934-4.488c0.456-1.761,1.092-4.147,1.957-6.921c0.404-1.481,0.876-2.997,1.375-4.602
			c0.335-1.077,0.674-2.167,0.999-3.271l0.405-1.261c-0.762,0.752-1.513,1.471-2.266,2.17c-2.38,2.279-4.902,4.374-7.478,6.21
			c-2.847,1.963-5.438,3.444-7.938,4.542c-2.634,1.191-5.333,1.799-8.01,1.799c-3.019,0-5.559-0.679-7.767-2.076
			c-2.315-1.462-4.054-3.14-5.315-5.127c-1.349-2.113-2.361-4.456-3.006-6.958c-0.013-0.049-0.022-0.098-0.03-0.147
			c-0.379-2.488-0.72-4.923-0.72-7.358v-0.884c0-0.338,0.044-0.68,0.092-0.979c0.217-4.396,0.85-8.998,1.883-13.679
			c1.116-4.928,2.463-9.516,4.12-14.034c1.691-4.641,3.671-9.22,5.886-13.609c2.753-5.034,5.07-8.946,7.314-12.356
			c2.639-3.988,5.445-7.662,8.343-10.921c2.958-3.341,6.034-6.253,9.141-8.654c3.156-2.452,6.386-4.385,9.598-5.745
			c3.301-1.421,6.605-2.143,9.811-2.143c3.758,0,7.451,1.037,10.976,3.081c3.528,2.127,6.798,5.431,9.741,9.832
			c0.753,1.118,1.247,2.296,1.462,3.497c0.19,1.035,0.288,2.06,0.288,3.038c0,2.438-0.611,4.406-1.817,5.849
			c-1.193,1.51-2.779,2.292-4.687,2.292c-1.735,0-3.286-0.843-4.609-2.505c-0.876-1.09-2.233-2.984-3.69-5.788
			c-1.108-1.991-2.271-3.376-3.537-4.195c-1.216-0.788-2.535-1.17-4.032-1.17c-2.355,0-4.895,1.028-7.763,3.143
			c-3.053,2.275-5.936,5.105-8.807,8.647c-3.019,3.723-5.88,7.926-8.504,12.492c-2.876,4.994-5.246,9.725-7.244,14.463
			c-2.16,5.131-3.779,9.873-4.949,14.497c-1.217,4.756-1.808,8.903-1.808,12.677c0,1.269,0.083,2.532,0.248,3.754
			c0.143,1.126,0.408,2.127,0.887,3.356c0.314,0.837,0.826,1.527,1.571,2.128c0.622,0.481,1.36,0.724,2.234,0.724
			c0.867,0,2.286-0.215,4.123-1.235c1.764-0.912,3.527-2.094,5.431-3.636c2.238-1.843,4.134-3.545,5.786-5.197
			c1.62-1.619,3.704-3.75,5.463-5.882c1.72-2.067,3.234-3.918,4.394-5.686c1.196-1.661,2.149-3.184,2.869-4.58l5.069-16.279
			c0.806-2.152,1.835-3.599,3.175-4.503c1.28-0.896,2.667-1.358,4.104-1.358c0.69,0,1.39,0.109,2.08,0.325
			c0.798,0.278,1.459,0.661,2.015,1.153c0.546,0.439,1.026,1.119,1.415,2.034c0.385,0.94,0.561,1.823,0.561,2.795
			c0,2.266-0.19,4.443-0.564,6.471c-0.32,1.806-0.814,3.669-1.553,5.854c-0.543,1.863-1.295,3.83-1.958,5.565
			c-0.795,2.103-1.481,3.987-2.094,5.758c-0.132,0.38-0.411,0.69-0.773,0.863c-0.099,0.269-0.229,0.636-0.393,1.135
			c-0.417,1.213-0.899,2.719-1.483,4.57c-0.548,1.73-1.199,3.806-1.871,6.1l-2.097,6.963c-0.499,1.479-0.922,2.919-1.333,4.313
			c-0.261,0.888-0.521,1.771-0.795,2.652l-1.744,6.105l-1.326,4.612l-0.611,2.175c-0.01,0.036-0.173,0.491-0.173,0.491
			c-0.232,0.648-0.496,1.383-0.888,2.201c-0.419,0.839-0.93,1.696-1.618,2.719c-0.783,1.043-1.493,1.774-2.279,2.37
			C57.887,127.489,56.869,127.847,55.733,127.847z M121.404,111.965c-2.287,0-4.181-0.777-5.63-2.309
			c-1.453-1.541-2.158-3.958-2.158-7.391c0-0.426,0.012-0.864,0.035-1.314c-0.079,0.095-0.157,0.188-0.236,0.28
			c-1.513,1.859-3.333,3.623-5.386,5.216c-2.167,1.672-4.492,2.967-6.916,3.849c-2.758,0.995-5.572,1.499-8.369,1.499
			c-1.448,0-2.836-0.206-4.126-0.611c-1.476-0.405-2.715-1.061-3.737-1.987c-0.984-0.876-1.821-2.071-2.55-3.646
			c-0.633-1.583-0.937-3.43-0.937-5.563c0-0.041,0.001-0.081,0.005-0.121l0.171-2.109c0.159-1.151,0.56-3.433,1.57-6.745
			c1.046-3.512,2.363-7.378,3.911-11.482c1.849-4.906,4.327-10.606,7.364-16.942c0.931-2.046,1.988-3.444,3.316-4.372
			c1.246-0.928,2.704-1.412,4.297-1.412c0.66,0,1.306,0.098,2.026,0.309c0.671,0.127,1.352,0.428,2.077,0.918
			c0.765,0.514,1.242,1.135,1.644,1.729c0.465,0.769,0.699,1.667,0.699,2.593c0,0.494-0.073,1.02-0.222,1.609
			c-0.009,0.036-0.02,0.071-0.031,0.106c-0.259,0.776-0.643,1.841-1.316,3.189l-2.31,4.388c-0.646,1.158-1.279,2.385-1.949,3.685
			l-0.786,1.519c-0.849,1.651-1.693,3.517-2.577,5.701c-0.75,1.907-1.45,3.946-2.077,6.046c-0.58,1.994-0.915,3.924-0.994,5.724
			c0.001,0.547,0.111,1.028,0.37,1.543c0.031,0.063,0.114,0.228,0.598,0.228c2.25,0,4.385-0.733,6.342-2.18
			c2.213-1.591,4.248-3.562,6.066-5.868c1.896-2.407,3.632-5.009,5.159-7.732c1.362-2.428,2.575-4.84,3.819-7.593
			c0.845-1.838,1.437-3.369,1.868-4.826c0.574-1.896,1.223-3.623,1.933-5.143c0.663-1.583,1.521-2.997,2.526-4.146
			c1.003-1.292,2.507-2.009,4.294-2.009c1.833,0,3.42,0.777,4.469,2.188c1.024,1.339,1.55,2.921,1.55,4.687
			c0,1.001-0.307,2.309-0.912,3.887c-0.575,1.582-1.166,3.173-1.964,4.997l-2.548,5.949c-0.823,1.831-1.597,3.781-2.52,6.347
			c-0.827,2.237-1.496,4.341-1.994,6.265c-0.49,1.948-0.74,3.782-0.74,5.442c0,0.706,0.086,0.953,1.052,0.953
			c1.11,0,2.429-0.369,3.817-1.066c1.712-0.761,3.483-1.855,5.332-3.283c1.833-1.415,3.736-3.141,5.656-5.129
			c2.038-2.145,3.682-4.206,5.018-6.296c0.28-0.438,0.761-0.691,1.264-0.691c0.124,0,0.249,0.016,0.374,0.047
			c0.627,0.162,1.08,0.708,1.123,1.354l0.587,8.948l0.204,0.32c0.332,0.523,0.31,1.196-0.058,1.695
			c-1.711,2.321-3.706,4.574-6.101,6.887c-2.326,2.242-4.743,4.248-7.186,5.965c-2.513,1.77-4.983,3.194-7.34,4.234
			C125.753,111.416,123.505,111.965,121.404,111.965z"/>
		<path fill="#FFFFFF" d="M69.942,9.581c3.523,0,6.932,0.97,10.224,2.878c3.265,1.969,6.358,5.048,9.247,9.368
			c0.653,0.969,1.055,1.939,1.233,2.928c0.179,0.969,0.265,1.909,0.265,2.773c0,2.064-0.481,3.706-1.468,4.887
			c-0.969,1.226-2.124,1.753-3.535,1.753c-1.227,0-2.38-0.613-3.436-1.939c-1.055-1.312-2.295-3.165-3.533-5.545
			c-1.229-2.21-2.555-3.792-4.052-4.762c-1.497-0.969-3.093-1.411-4.848-1.411c-2.736,0-5.559,1.154-8.653,3.436
			c-3.08,2.295-6.077,5.203-9.082,8.91c-2.994,3.692-5.903,7.927-8.64,12.688c-2.737,4.752-5.204,9.595-7.326,14.627
			c-2.112,5.018-3.794,9.865-5.021,14.712c-1.24,4.847-1.854,9.167-1.854,13.045c0,1.325,0.086,2.651,0.261,3.954
			c0.181,1.42,0.538,2.575,0.976,3.7c0.434,1.156,1.145,2.04,2.028,2.752c0.884,0.685,1.939,1.056,3.175,1.056
			c1.409,0,3.084-0.442,4.852-1.425c1.854-0.957,3.707-2.21,5.646-3.78c1.939-1.597,3.964-3.364,5.903-5.303
			c1.939-1.938,3.878-3.949,5.56-5.988c1.672-2.01,3.265-3.949,4.491-5.817c1.326-1.839,2.295-3.434,3.008-4.833l5.107-16.403
			c0.653-1.738,1.498-2.974,2.583-3.707c1.055-0.739,2.14-1.101,3.264-1.101c0.528,0,1.085,0.085,1.632,0.256
			c0.528,0.185,1.036,0.462,1.468,0.844c0.442,0.356,0.769,0.884,1.029,1.497c0.257,0.627,0.442,1.326,0.442,2.209
			c0,2.202-0.185,4.28-0.54,6.199c-0.344,1.939-0.872,3.792-1.499,5.646c-0.527,1.804-1.226,3.647-1.938,5.51
			c-0.699,1.848-1.412,3.785-2.11,5.802l-0.336-0.141c-0.155,0.23-0.442,0.963-0.836,2.16c-0.414,1.205-0.901,2.723-1.489,4.589
			c-0.573,1.809-1.22,3.878-1.879,6.13l-2.094,6.951c-0.798,2.36-1.411,4.662-2.124,6.951l-1.754,6.14l-1.325,4.61l-0.614,2.183
			c-0.271,0.74-0.537,1.545-0.97,2.45c-0.441,0.884-0.976,1.736-1.51,2.53c-0.613,0.813-1.227,1.472-1.939,2.011
			c-0.699,0.537-1.411,0.782-2.196,0.782c-1.24,0-2.124-0.421-2.737-1.225c-0.615-0.834-0.884-2.341-0.884-4.551v-1.997
			c0-0.716,0.355-2.111,0.884-4.104c0.527-2.038,1.141-4.299,1.939-6.859c0.698-2.553,1.583-5.182,2.381-7.896l2.381-7.4
			c-2.113,2.298-4.32,4.577-6.701,6.787c-2.381,2.28-4.848,4.32-7.328,6.088c-2.552,1.759-5.105,3.264-7.67,4.391
			c-2.552,1.154-5.021,1.672-7.406,1.672c-2.731,0-5.026-0.617-6.965-1.844c-1.939-1.225-3.621-2.725-4.851-4.663
			c-1.237-1.938-2.207-4.147-2.82-6.528c-0.346-2.271-0.703-4.751-0.703-7.132v-0.884c0-0.252,0.04-0.543,0.086-0.823
			c0.211-4.392,0.835-8.897,1.854-13.512c1.055-4.656,2.381-9.252,4.063-13.841c1.668-4.579,3.607-9.069,5.817-13.449
			c2.295-4.195,4.676-8.33,7.228-12.207c2.565-3.878,5.309-7.485,8.211-10.749c2.908-3.285,5.873-6.097,8.937-8.464
			c3.054-2.372,6.135-4.225,9.266-5.551C63.796,10.28,66.889,9.581,69.942,9.581 M129.186,58.09c1.326,0,2.48,0.528,3.265,1.583
			c0.812,1.061,1.254,2.295,1.254,3.792c0,0.798-0.271,1.939-0.813,3.351c-0.514,1.411-1.127,3.079-1.938,4.932l-2.553,5.959
			c-0.956,2.126-1.768,4.248-2.552,6.43c-0.798,2.16-1.497,4.318-2.035,6.396c-0.531,2.11-0.788,4.051-0.788,5.818
			c0,1.666,0.884,2.453,2.552,2.453c1.226,0,2.734-0.343,4.491-1.227c1.769-0.784,3.637-1.938,5.575-3.436s3.877-3.265,5.818-5.274
			c1.938-2.039,3.705-4.188,5.202-6.529l0.612,9.331l0.41,0.645c-1.699,2.307-3.688,4.527-5.935,6.697
			c-2.272,2.19-4.604,4.129-7.006,5.816c-2.399,1.689-4.76,3.064-7.083,4.09c-2.332,1.043-4.407,1.547-6.261,1.547
			s-3.38-0.613-4.541-1.84c-1.175-1.246-1.748-3.364-1.748-6.359c0-2.108,0.316-4.57,0.93-7.383
			c-1.009,1.739-2.266,3.608-3.772,5.376c-1.497,1.839-3.235,3.507-5.164,5.003c-1.939,1.497-4.109,2.751-6.509,3.625
			c-2.401,0.866-5.013,1.408-7.856,1.408c-1.255,0-2.496-0.171-3.676-0.542c-1.24-0.342-2.295-0.866-3.179-1.668
			c-0.879-0.783-1.583-1.84-2.196-3.165c-0.528-1.326-0.798-2.993-0.798-4.934l0.171-2.109c0.186-1.326,0.627-3.535,1.51-6.429
			c0.871-2.924,2.111-6.702,3.879-11.391c1.757-4.663,4.142-10.208,7.313-16.823c0.798-1.753,1.682-2.994,2.823-3.791
			c1.055-0.785,2.21-1.142,3.438-1.142c0.54,0,1.068,0.085,1.681,0.271c0.527,0.086,1.055,0.343,1.583,0.699
			c0.53,0.356,0.884,0.798,1.24,1.326c0.266,0.442,0.442,1.055,0.442,1.753c0,0.442-0.085,0.884-0.176,1.24
			c-0.266,0.798-0.623,1.768-1.235,2.994l-2.295,4.36c-0.884,1.583-1.768,3.347-2.738,5.209c-0.969,1.883-1.853,3.893-2.637,5.831
			c-0.798,2.031-1.5,4.091-2.124,6.179c-0.613,2.11-0.97,4.148-1.055,6.088c0,0.862,0.17,1.568,0.527,2.28
			c0.357,0.714,1.055,1.056,1.939,1.056c2.466,0,4.947-0.784,7.234-2.474c2.29-1.646,4.414-3.686,6.353-6.146
			c1.939-2.461,3.707-5.104,5.29-7.927c1.583-2.821,2.823-5.374,3.877-7.709c0.713-1.553,1.412-3.234,1.939-5.019
			c0.535-1.768,1.154-3.436,1.854-4.933c0.627-1.497,1.411-2.782,2.295-3.792C126.804,58.582,127.879,58.09,129.186,58.09
			 M69.942,6.581c-3.411,0-6.914,0.763-10.412,2.269c-3.315,1.404-6.659,3.404-9.92,5.938c-3.175,2.453-6.32,5.431-9.342,8.844
			c-2.941,3.308-5.792,7.038-8.467,11.083c-2.271,3.45-4.608,7.396-7.358,12.422c-0.016,0.029-0.032,0.059-0.046,0.088
			c-2.241,4.441-4.245,9.075-5.958,13.773c-1.677,4.574-3.042,9.222-4.17,14.206c-1.048,4.75-1.691,9.409-1.916,13.865
			c-0.052,0.34-0.098,0.727-0.098,1.133v0.884c0,2.539,0.364,5.139,0.737,7.584c0.015,0.1,0.036,0.198,0.061,0.296
			c0.684,2.656,1.76,5.144,3.196,7.395c1.378,2.172,3.27,4.001,5.777,5.585c2.419,1.531,5.302,2.308,8.567,2.308
			c2.891,0,5.798-0.652,8.643-1.938c2.559-1.124,5.229-2.65,8.137-4.654c1.987-1.416,3.922-2.963,5.791-4.627
			c-0.384,1.239-0.767,2.501-1.106,3.736c-0.866,2.784-1.504,5.176-1.963,6.95c-0.665,2.505-0.979,3.809-0.979,4.855v1.997
			c0,3.001,0.453,4.954,1.47,6.332c0.866,1.136,2.434,2.443,5.151,2.443c1.458,0,2.813-0.473,4.024-1.403
			c0.882-0.668,1.685-1.493,2.507-2.584c0.032-0.043,0.063-0.086,0.094-0.131c0.725-1.078,1.267-1.988,1.705-2.864
			c0.446-0.932,0.724-1.704,0.969-2.387l0.135-0.375c0.026-0.071,0.049-0.144,0.07-0.217l0.614-2.183l1.32-4.594l1.746-6.11
			c0.273-0.878,0.532-1.758,0.792-2.642c0.406-1.379,0.825-2.805,1.299-4.207c0.011-0.032,0.021-0.063,0.031-0.096l2.094-6.951
			c0.674-2.303,1.321-4.368,1.867-6.089c0.668-2.122,1.106-3.473,1.466-4.521c0.085-0.257,0.159-0.476,0.224-0.662
			c0.431-0.35,0.761-0.815,0.946-1.35c0.608-1.756,1.289-3.628,2.081-5.722c0.663-1.734,1.418-3.708,1.995-5.669
			c0.752-2.233,1.259-4.148,1.591-6.024c0.387-2.096,0.585-4.365,0.585-6.722c0-1.158-0.218-2.252-0.666-3.346
			c-0.49-1.155-1.096-2.012-1.865-2.649c-0.691-0.601-1.504-1.067-2.416-1.387c-0.032-0.011-0.065-0.022-0.098-0.032
			c-0.834-0.26-1.685-0.393-2.526-0.393c-1.75,0-3.428,0.553-4.985,1.643c-1.564,1.057-2.778,2.737-3.67,5.108
			c-0.021,0.054-0.039,0.109-0.056,0.164l-5.029,16.152c-0.679,1.298-1.571,2.717-2.656,4.221c-0.026,0.036-0.051,0.072-0.075,0.109
			c-1.117,1.702-2.603,3.518-4.289,5.544c-1.727,2.093-3.779,4.19-5.375,5.785c-1.619,1.618-3.479,3.289-5.689,5.109
			c-1.804,1.461-3.483,2.588-5.115,3.43c-0.027,0.015-0.054,0.029-0.081,0.044c-1.214,0.675-2.42,1.047-3.394,1.047
			c-0.534,0-0.941-0.127-1.317-0.412c-0.524-0.428-0.867-0.889-1.077-1.449c-0.445-1.144-0.683-2.038-0.809-3.025
			c-0.158-1.178-0.237-2.373-0.237-3.575c0-3.647,0.576-7.672,1.76-12.302c1.154-4.557,2.75-9.229,4.88-14.292
			c1.973-4.679,4.315-9.355,7.16-14.293c2.586-4.5,5.401-8.636,8.37-12.296c2.792-3.444,5.586-6.19,8.544-8.394
			c2.589-1.909,4.837-2.842,6.86-2.842c1.216,0,2.238,0.295,3.217,0.929c1.033,0.668,2.056,1.902,3.042,3.667
			c1.193,2.29,2.519,4.365,3.836,6.002c2.011,2.526,4.25,3.059,5.773,3.059c2.377,0,4.35-0.963,5.864-2.862
			c1.419-1.717,2.139-3.997,2.139-6.779c0-1.07-0.106-2.186-0.314-3.317c-0.25-1.394-0.822-2.765-1.695-4.061
			c-3.061-4.576-6.489-8.032-10.185-10.26C81.7,9.881,81.686,9.873,81.67,9.864C77.914,7.686,73.967,6.581,69.942,6.581
			L69.942,6.581z M129.186,55.09c-2.202,0-4.143,0.916-5.475,2.581c-1.078,1.246-1.996,2.757-2.729,4.493
			c-0.73,1.571-1.396,3.347-1.981,5.279c-0.416,1.405-0.984,2.872-1.794,4.635c-1.233,2.73-2.428,5.106-3.768,7.494
			c-1.489,2.656-3.181,5.192-5.03,7.538c-1.731,2.197-3.664,4.07-5.747,5.566c-1.561,1.153-3.209,1.782-4.932,1.893
			c-0.009-0.079-0.015-0.165-0.017-0.26c0.08-1.66,0.394-3.446,0.935-5.31c0.609-2.038,1.296-4.036,2.035-5.918
			c0.843-2.083,1.693-3.962,2.513-5.557c0.262-0.502,0.524-1.011,0.782-1.51c0.664-1.288,1.291-2.504,1.908-3.607
			c0.012-0.022,0.024-0.044,0.036-0.066l2.295-4.36c0.01-0.019,0.019-0.038,0.029-0.056c0.716-1.433,1.123-2.563,1.398-3.386
			c0.023-0.07,0.044-0.141,0.062-0.212c0.18-0.711,0.268-1.357,0.268-1.977c0-1.212-0.302-2.354-0.872-3.301
			c-0.027-0.044-0.055-0.088-0.083-0.131c-0.463-0.686-1.069-1.476-2.054-2.137c-0.866-0.585-1.707-0.958-2.557-1.13
			c-0.833-0.238-1.594-0.349-2.379-0.349c-1.909,0-3.656,0.575-5.194,1.709c-1.533,1.083-2.736,2.659-3.784,4.953
			C90,68.329,87.509,74.06,85.647,79c-1.56,4.137-2.888,8.036-3.947,11.592c-1.035,3.393-1.451,5.762-1.606,6.869
			c-0.008,0.058-0.014,0.115-0.019,0.173l-0.171,2.109c-0.006,0.081-0.01,0.162-0.01,0.243c0,2.324,0.34,4.357,1.011,6.043
			c0.02,0.051,0.042,0.101,0.064,0.15c0.817,1.766,1.773,3.121,2.923,4.146c1.169,1.061,2.591,1.82,4.326,2.306
			c1.421,0.44,2.943,0.664,4.525,0.664c2.971,0,5.957-0.534,8.874-1.586c2.577-0.938,5.038-2.308,7.324-4.072
			c1.18-0.915,2.285-1.883,3.308-2.896c0.299,2.576,1.102,4.533,2.432,5.943c1.722,1.82,4.046,2.781,6.723,2.781
			c2.316,0,4.765-0.592,7.485-1.809c2.434-1.073,4.99-2.548,7.586-4.375c2.503-1.759,4.98-3.815,7.36-6.109
			c2.458-2.374,4.508-4.688,6.268-7.078c0.734-0.997,0.781-2.342,0.118-3.387l-0.563-8.564c-0.085-1.294-0.99-2.387-2.246-2.709
			c-0.248-0.064-0.499-0.095-0.747-0.095c-1.007,0-1.967,0.508-2.527,1.384c-1.284,2.008-2.87,3.996-4.85,6.079
			c-1.854,1.918-3.702,3.596-5.478,4.967c-1.753,1.354-3.421,2.386-4.957,3.067c-0.045,0.02-0.089,0.04-0.133,0.063
			c-1.166,0.587-2.058,0.811-2.684,0.88c0.05-1.386,0.281-2.9,0.687-4.513c0.48-1.855,1.135-3.91,1.94-6.089
			c0.917-2.553,1.677-4.469,2.474-6.239c0.007-0.017,0.015-0.033,0.021-0.049l2.553-5.959c0.868-1.985,1.542-3.834,1.99-5.064
			c0.674-1.764,1.002-3.204,1.002-4.399c0-2.103-0.63-3.991-1.871-5.615C133.52,56.083,131.505,55.09,129.186,55.09L129.186,55.09z"
			/>
	</g>
	<g>
		<path fill="#FF0000" d="M145.085,111.621c-1.817,0-3.335-0.314-4.642-0.96c-1.16-0.574-2.131-1.375-3.056-2.521
			c-0.022-0.028-0.045-0.058-0.065-0.088c-0.702-1.016-1.224-2.215-1.551-3.566c-0.266-1.346-0.383-2.647-0.383-4.158
			c0-2.499,0.305-4.894,0.932-7.318c0.704-2.734,1.302-4.814,2.101-6.732c0.544-1.397,1.088-2.816,1.63-4.228
			c0.824-2.15,1.643-4.283,2.486-6.411l3.895-9.7l17.552-44.138c0.771-2.06,1.871-3.541,3.354-4.498
			c1.473-0.87,2.932-1.295,4.389-1.295c1.611,0,3,0.485,4.244,1.484c0.926,0.715,2.057,2.168,2.057,4.932
			c0,0.974-0.194,2.016-0.578,3.099l-0.212,0.559c-0.29,0.773-0.619,1.648-1.095,2.568c-0.826,1.817-1.88,4.236-3.386,7.778
			l-4.423,10.23l-1.094,2.663c-1.162,2.827-2.362,5.746-3.553,8.743l-4.767,11.648c-1.58,3.734-2.94,7.177-4.312,10.669
			l-3.437,8.769c-0.078,0.199-0.197,0.38-0.351,0.528l-0.046,0.045c-0.354,0.929-0.717,2.024-1.079,3.261
			c-0.379,1.241-0.568,2.358-0.568,3.334c0,0.31,0.035,0.564,0.104,0.749c0.025,0.002,0.056,0.003,0.092,0.003
			c0.425,0,1.187-0.123,2.408-0.708c1.199-0.556,2.449-1.275,3.733-2.148c1.411-0.934,2.862-1.992,4.328-3.158
			c0.915-0.729,1.829-1.496,2.736-2.259c0.608-0.511,1.214-1.02,1.816-1.515c1.372-1.206,2.809-2.526,4.234-3.891
			c0.775-0.743,1.501-1.454,2.181-2.12c0.513-0.503,1.001-0.981,1.466-1.43c0.522-0.604,1.117-0.875,1.637-1.082
			c0.651-0.261,1.164-0.377,1.66-0.377c1.303,0,2.328,0.517,3.134,1.579c0.696,0.823,1.089,2.04,1.089,3.457
			c0,1.16-0.299,2.396-0.914,3.776c-0.623,1.326-1.649,2.596-3.149,3.905c-2.007,2.144-4.664,4.941-7.518,7.678
			c-2.55,2.459-5.115,4.665-7.621,6.553c-2.417,1.794-4.929,3.281-7.688,4.556C150.167,111.043,147.564,111.621,145.085,111.621z"/>
		<path fill="#FFFFFF" d="M171.726,17.508c1.246,0,2.312,0.356,3.305,1.154c0.977,0.754,1.496,2.025,1.496,3.763
			c0,0.814-0.17,1.688-0.492,2.598c-0.341,0.884-0.684,1.894-1.225,2.938c-0.971,2.13-2.108,4.762-3.435,7.881l-4.419,10.222
			c-1.498,3.657-3.09,7.484-4.664,11.448l-4.761,11.633c-1.596,3.772-2.994,7.313-4.319,10.689l-3.437,8.77l-0.28,0.272
			c-0.423,1.073-0.834,2.309-1.238,3.686c-0.429,1.406-0.629,2.652-0.629,3.757c0,0.693,0.129,1.227,0.37,1.639
			c0.231,0.411,0.674,0.613,1.325,0.613c0.815,0,1.819-0.263,3.057-0.855c1.214-0.563,2.53-1.311,3.928-2.26
			c1.426-0.943,2.901-2.019,4.419-3.225c1.537-1.226,3.064-2.552,4.571-3.789c1.497-1.315,2.935-2.641,4.319-3.967
			c1.386-1.326,2.61-2.552,3.706-3.606c0.303-0.371,0.663-0.543,1.095-0.715c0.423-0.169,0.785-0.271,1.105-0.271
			c0.784,0,1.396,0.271,1.938,0.985c0.515,0.611,0.784,1.495,0.784,2.551c0,0.956-0.27,2.011-0.784,3.166
			c-0.542,1.153-1.497,2.286-2.822,3.435c-2.48,2.651-4.933,5.202-7.513,7.676c-2.453,2.366-5.004,4.568-7.485,6.438
			c-2.48,1.841-4.933,3.246-7.414,4.392c-2.452,1.054-4.838,1.597-7.143,1.597c-1.595,0-2.898-0.271-3.977-0.805
			c-1.055-0.521-1.84-1.233-2.553-2.117c-0.611-0.884-1.054-1.938-1.326-3.065c-0.246-1.254-0.341-2.48-0.341-3.806
			c0-2.281,0.271-4.57,0.884-6.943c0.613-2.38,1.225-4.59,2.033-6.53c1.403-3.606,2.729-7.142,4.126-10.663l3.892-9.694
			l17.554-44.142c0.657-1.755,1.568-3.014,2.773-3.792C169.335,17.864,170.531,17.508,171.726,17.508 M171.726,14.508
			c-1.729,0-3.444,0.495-5.1,1.471c-0.035,0.021-0.069,0.042-0.104,0.064c-1.73,1.118-3.058,2.877-3.943,5.23l-17.544,44.116
			l-3.888,9.685c-0.853,2.15-1.688,4.33-2.497,6.438c-0.537,1.399-1.076,2.806-1.628,4.223c-0.916,2.208-1.593,4.719-2.155,6.901
			c-0.658,2.548-0.979,5.064-0.979,7.692c0,1.61,0.126,3.003,0.396,4.384c0.009,0.042,0.019,0.085,0.028,0.127
			c0.37,1.531,0.968,2.899,1.775,4.067c0.041,0.061,0.086,0.119,0.132,0.177c1.065,1.32,2.195,2.249,3.558,2.923
			c1.518,0.75,3.254,1.115,5.307,1.115c2.684,0,5.485-0.619,8.327-1.841c0.024-0.01,0.049-0.021,0.073-0.032
			c2.854-1.317,5.452-2.856,7.944-4.706c2.571-1.938,5.184-4.183,7.78-6.688c2.849-2.731,5.504-5.524,7.517-7.675
			c1.629-1.432,2.759-2.846,3.45-4.318c0.009-0.019,0.018-0.037,0.025-0.056c0.702-1.576,1.044-3.012,1.044-4.387
			c0-1.745-0.497-3.271-1.438-4.422c-1.075-1.384-2.555-2.114-4.284-2.114c-0.901,0-1.698,0.276-2.219,0.484
			c-0.682,0.271-1.468,0.656-2.164,1.438c-0.454,0.439-0.931,0.905-1.431,1.396c-0.676,0.663-1.396,1.369-2.167,2.107
			c-1.397,1.338-2.807,2.633-4.188,3.848c-0.594,0.488-1.19,0.989-1.79,1.493c-0.891,0.748-1.812,1.521-2.708,2.236
			c-1.429,1.135-2.845,2.169-4.204,3.068c-1.248,0.848-2.427,1.526-3.534,2.04c-0.142,0.067-0.274,0.128-0.397,0.181
			c0.082-0.538,0.217-1.119,0.405-1.737c0.324-1.104,0.641-2.072,0.949-2.906c0.208-0.248,0.375-0.529,0.493-0.832l3.437-8.77
			c1.367-3.481,2.724-6.915,4.289-10.615l4.774-11.666c1.198-3.015,2.398-5.934,3.559-8.756l1.094-2.663l4.408-10.197
			c1.49-3.505,2.533-5.9,3.381-7.763c0.497-0.971,0.834-1.867,1.131-2.66l0.192-0.508c0.011-0.025,0.02-0.051,0.028-0.077
			c0.441-1.244,0.665-2.456,0.665-3.6c0-3.351-1.43-5.176-2.639-6.119C175.393,15.112,173.657,14.508,171.726,14.508L171.726,14.508
			z"/>
	</g>
	<g>
		<path fill="#FF0000" d="M155.628,145.776c-1.705,0-3.158-0.422-4.32-1.254c-0.924-0.661-2.024-2.07-2.024-5.027
			c0-1.16,0.123-2.192,0.377-3.151c0.166-0.879,0.461-1.688,0.746-2.471l0.188-0.523c0.179-0.641,0.458-1.299,0.729-1.936
			c0.118-0.278,0.235-0.555,0.343-0.83c0.417-1.001,0.725-1.815,0.954-2.528c0.016-0.05,0.034-0.098,0.056-0.146
			c1.672-3.791,3.485-7.674,5.24-11.428l1.122-2.404c2.122-4.524,4.091-8.85,6.261-13.63c2.1-4.781,3.906-9.113,5.516-13.228
			c1.658-4.296,3.067-8.464,4.184-12.382l1.274-3.588c0.521-1.516,1.164-3.057,1.907-4.565c0.868-1.722,1.708-3.057,2.575-4.092
			c1.488-1.776,2.982-2.148,3.973-2.148c2.01,0,3.476,0.489,4.48,1.494c1.029,1.157,1.499,2.522,1.499,4.24
			c0,0.353-0.049,0.871-0.145,1.538c-0.007,0.063-0.015,0.126-0.022,0.19c0.369-0.349,0.753-0.705,1.15-1.069
			c1.592-1.456,3.393-2.892,5.352-4.268c1.88-1.331,3.868-2.441,5.745-3.205c2.079-0.874,4.093-1.301,6.139-1.301
			c1.399,0,2.741,0.184,4.224,0.578c1.503,0.46,2.78,1.081,3.851,1.858c1.168,0.804,2.113,1.829,2.858,3.112
			c0.754,1.298,1.137,2.808,1.137,4.485c0,2.048-0.508,4.203-1.553,6.589c-1.104,2.484-2.316,4.667-3.707,6.68
			c-1.42,2.175-3.019,4.343-4.729,6.412l-0.263,0.32c-1.543,1.887-3,3.668-4.438,5.271l-3.687,4.295
			c-0.8,0.95-1.062,1.384-1.145,1.552c0.012,0.043,0.032,0.062,0.049,0.077c0.059,0.043,0.284,0.127,0.724,0.127
			c0.097,0,0.655-0.045,2.16-0.932c0.97-0.592,2.68-1.729,5.208-3.724l0.201-0.163c2.289-1.85,5.137-4.152,8.554-7.107l1.364-1.186
			c2.947-2.563,6.556-5.7,10.623-9.346c-0.072-0.202-0.102-0.42-0.082-0.64c0.041-0.459,0.29-0.874,0.678-1.125
			c0.529-0.344,1.1-0.701,1.681-0.987c0.677-0.337,1.348-0.51,1.988-0.51c1.396,0,2.544,0.678,3.231,1.91
			c0.593,1.021,0.9,2.215,0.9,3.527c0,1.371-0.303,2.79-0.9,4.217c-0.697,1.579-1.6,2.776-2.772,3.687
			c-4.349,3.842-7.939,7.115-10.904,9.948c-3.674,3.403-6.63,5.917-9.319,7.924c-2.95,2.223-5.897,3.997-8.755,5.271
			c-2.943,1.325-6.027,1.971-9.423,1.971c-3.324,0-5.935-0.77-7.757-2.287c-1.898-1.479-2.922-3.713-2.922-6.427V102.9
			c0-0.219,0.045-0.394,0.081-0.533l0.021-0.086c0.002-0.029,0.005-0.058,0.009-0.086c0.197-1.538,0.884-3.328,2.038-5.321
			c1.246-2.052,2.52-3.911,3.908-5.712c1.446-1.871,3.02-3.793,4.811-5.878c0.911-1.059,1.771-2.095,2.608-3.105
			c0.695-0.839,1.376-1.659,2.058-2.459c1.316-1.619,2.438-3.156,3.407-4.672c1.106-1.59,1.189-2.479,1.189-2.714
			c0-0.058-0.005-0.099-0.017-0.131c-0.161-0.06-0.469-0.137-0.984-0.137c-1.282,0-2.646,0.357-4.17,1.091
			c-1.369,0.644-2.799,1.589-4.647,3.07c-1.213,1.079-2.877,2.612-4.48,4.482c-1.42,1.654-2.729,3.354-4.257,5.397
			c-1.175,1.718-2.455,3.61-3.617,5.58l-0.604,1.108c-0.799,1.464-1.554,2.846-2.167,4.074l-0.964,2.095l-1.304,3.118l-1.585,3.543
			l-1.489,3.428l-1.252,2.907c-0.269,0.693-0.509,1.193-0.684,1.559l-0.117,0.246c-0.026,0.078-0.107,0.3-0.208,0.575
			c-0.159,0.438-0.367,1.007-0.636,1.712l-1.604,4.045l-1.833,4.817l-1.764,4.746l-1.494,4.053
			c-0.578,1.477-0.691,1.936-0.714,2.066c-0.018,0.101-0.045,0.199-0.082,0.294l-0.078,0.2c-0.425,1.088-0.864,2.212-1.408,3.273
			c-0.561,1.15-1.214,2.159-1.985,3.056c-0.79,0.964-1.722,1.743-2.747,2.287C158.04,145.491,156.868,145.776,155.628,145.776z"/>
		<path fill="#FFFFFF" d="M208.926,59.564c1.326,0,2.551,0.185,3.838,0.527c1.227,0.376,2.38,0.914,3.354,1.622
			c1.035,0.713,1.83,1.597,2.442,2.652c0.613,1.055,0.935,2.311,0.935,3.732c0,1.883-0.503,3.878-1.427,5.988
			c-0.956,2.15-2.109,4.319-3.567,6.429c-1.418,2.171-2.964,4.269-4.65,6.309c-1.668,2.039-3.165,3.879-4.661,5.546l-3.708,4.319
			c-0.973,1.155-1.496,1.939-1.516,2.382c0,0.541,0.169,0.983,0.54,1.326c0.344,0.34,0.956,0.525,1.741,0.525
			c0.691,0,1.676-0.405,2.922-1.14c1.305-0.796,3.093-2.038,5.375-3.838c2.31-1.867,5.263-4.248,8.808-7.313
			c3.509-3.054,7.927-6.871,13.102-11.532l-0.684-0.641c0.572-0.372,1.057-0.668,1.526-0.899c0.463-0.231,0.915-0.356,1.326-0.356
			c0.854,0,1.498,0.382,1.921,1.141c0.44,0.758,0.711,1.682,0.711,2.797c0,1.176-0.271,2.411-0.784,3.638
			c-0.541,1.226-1.252,2.261-2.309,3.081c-4.147,3.66-7.854,7.023-11.021,10.048c-3.265,3.024-6.259,5.626-9.181,7.807
			c-2.895,2.181-5.718,3.877-8.468,5.103c-2.725,1.227-5.638,1.841-8.813,1.841c-2.896,0-5.204-0.613-6.797-1.939
			c-1.571-1.226-2.382-2.993-2.382-5.274V102.9c0-0.071,0.099-0.343,0.099-0.514c0.171-1.326,0.784-2.923,1.849-4.761
			c1.074-1.768,2.302-3.607,3.798-5.548c1.498-1.938,3.094-3.876,4.761-5.816c1.668-1.938,3.167-3.806,4.67-5.568
			c1.419-1.745,2.572-3.341,3.529-4.838c0.983-1.412,1.426-2.639,1.426-3.521c0-0.527-0.186-0.969-0.563-1.326
			c-0.411-0.266-1.055-0.442-1.938-0.442c-1.587,0-3.165,0.442-4.821,1.24c-1.668,0.784-3.297,1.939-4.934,3.25
			c-1.592,1.412-3.166,2.908-4.682,4.676c-1.517,1.768-2.922,3.607-4.319,5.476c-1.326,1.937-2.563,3.776-3.708,5.717
			c-1.053,1.937-2.037,3.705-2.82,5.274l-0.984,2.137l-1.325,3.167l-1.57,3.51l-1.496,3.442l-1.254,2.911
			c-0.343,0.884-0.613,1.399-0.784,1.769c-0.17,0.441-0.442,1.227-0.884,2.381l-1.597,4.028l-1.841,4.837l-1.768,4.757l-1.495,4.057
			c-0.442,1.128-0.715,1.921-0.785,2.332c-0.441,1.128-0.884,2.28-1.425,3.337c-0.514,1.054-1.105,1.968-1.788,2.762
			c-0.666,0.813-1.438,1.476-2.313,1.939c-0.884,0.442-1.839,0.712-2.91,0.712c-1.41,0-2.563-0.341-3.447-0.974
			s-1.397-1.939-1.397-3.808c0-0.885,0.075-1.839,0.342-2.821c0.172-0.956,0.542-1.859,0.884-2.822
			c0.271-0.958,0.713-1.842,1.056-2.726c0.369-0.884,0.712-1.768,0.983-2.61c2.014-4.565,4.182-9.152,6.35-13.804
			c2.168-4.621,4.229-9.151,6.268-13.644c1.972-4.49,3.828-8.909,5.546-13.301c1.668-4.319,3.093-8.528,4.229-12.518l1.245-3.496
			c0.514-1.497,1.144-2.994,1.84-4.405c0.711-1.411,1.496-2.737,2.38-3.792c0.884-1.055,1.867-1.612,2.822-1.612
			c1.597,0,2.722,0.356,3.42,1.055c0.689,0.778,1.06,1.768,1.06,3.179c0,0.259-0.039,0.698-0.129,1.326
			c-0.072,0.613-0.172,1.226-0.304,1.889l-0.398,1.853c-0.073,0.613-0.245,1.056-0.344,1.323c1.416-1.554,2.994-3.091,4.671-4.625
			c1.667-1.525,3.435-2.906,5.201-4.146c1.742-1.234,3.61-2.295,5.448-3.043C205.22,59.97,207.057,59.564,208.926,59.564
			 M208.926,56.564c-2.25,0-4.452,0.466-6.735,1.424c-1.951,0.795-4.043,1.961-6.021,3.361c-1.455,1.022-2.831,2.081-4.104,3.159
			c-0.241-1.352-0.795-2.506-1.673-3.499c-0.041-0.045-0.082-0.089-0.125-0.132c-1.282-1.283-3.147-1.934-5.541-1.934
			c-1.852,0-3.671,0.954-5.122,2.685c-0.942,1.125-1.845,2.555-2.759,4.37c-0.784,1.587-1.452,3.188-1.999,4.781l-1.233,3.462
			c-0.021,0.061-0.041,0.123-0.059,0.185c-1.104,3.875-2.498,7.999-4.144,12.259c-1.597,4.082-3.396,8.396-5.494,13.176
			c-2.153,4.743-4.12,9.063-6.236,13.575l-1.125,2.409c-1.758,3.762-3.574,7.651-5.254,11.458c-0.042,0.096-0.078,0.192-0.11,0.291
			c-0.217,0.672-0.51,1.448-0.896,2.374c-0.01,0.023-0.02,0.048-0.028,0.071c-0.102,0.262-0.213,0.523-0.325,0.787
			c-0.263,0.618-0.559,1.316-0.788,2.097l-0.157,0.434c-0.301,0.825-0.611,1.678-0.801,2.654c-0.277,1.071-0.413,2.212-0.413,3.482
			c0,3.595,1.441,5.381,2.651,6.247c1.422,1.018,3.169,1.534,5.193,1.534c1.458,0,2.889-0.347,4.253-1.029
			c0.021-0.011,0.043-0.021,0.063-0.032c1.192-0.633,2.27-1.527,3.203-2.66c0.841-0.982,1.553-2.078,2.175-3.35
			c0.571-1.12,1.021-2.271,1.457-3.386l0.078-0.199c0.074-0.19,0.129-0.387,0.163-0.588c0.004-0.015,0.093-0.396,0.621-1.742
			c0.008-0.02,0.015-0.039,0.021-0.059l1.495-4.057l1.766-4.749l1.832-4.814l1.582-3.99c0.286-0.747,0.496-1.323,0.658-1.768
			c0.077-0.214,0.143-0.395,0.198-0.541l0.068-0.145c0.172-0.357,0.43-0.893,0.73-1.664l1.232-2.862l1.492-3.434l1.558-3.479
			c0.01-0.022,0.02-0.045,0.029-0.067l1.305-3.118l0.942-2.045c0.597-1.193,1.337-2.549,2.12-3.983l0.604-1.108
			c1.12-1.896,2.36-3.731,3.538-5.451c1.494-1.997,2.776-3.66,4.156-5.27c1.521-1.773,3.111-3.244,4.339-4.334
			c1.702-1.359,3.062-2.259,4.276-2.831c0.898-0.433,1.712-0.714,2.467-0.853c-0.09,0.147-0.191,0.305-0.309,0.472
			c-0.022,0.033-0.045,0.066-0.066,0.1c-0.933,1.459-2.015,2.943-3.307,4.534c-0.678,0.796-1.355,1.613-2.048,2.448
			c-0.832,1.002-1.691,2.039-2.59,3.083c-1.811,2.106-3.399,4.049-4.86,5.938c-1.426,1.849-2.729,3.753-3.988,5.825
			c-0.011,0.018-0.021,0.036-0.032,0.054c-1.255,2.167-2.005,4.146-2.229,5.881c-0.001,0.008-0.002,0.015-0.003,0.021
			c-0.048,0.189-0.12,0.489-0.12,0.876v0.542c0,3.176,1.21,5.807,3.499,7.61c2.097,1.728,5.017,2.604,8.68,2.604
			c3.562,0,6.94-0.708,10.044-2.105c2.95-1.314,5.995-3.146,9.041-5.441c2.723-2.032,5.718-4.577,9.415-8.002
			c2.97-2.837,6.525-6.079,10.902-9.942c1.334-1.059,2.359-2.426,3.132-4.176c0.008-0.018,0.016-0.035,0.023-0.053
			c0.675-1.611,1.017-3.226,1.017-4.797s-0.372-3.013-1.104-4.283c-0.952-1.688-2.601-2.655-4.527-2.655
			c-0.875,0-1.771,0.226-2.666,0.672c-0.636,0.313-1.252,0.699-1.82,1.068c-0.773,0.502-1.272,1.332-1.354,2.251
			c-0.005,0.06-0.009,0.12-0.011,0.179c-3.82,3.416-7.221,6.372-10.021,8.808l-1.367,1.188c-3.391,2.932-6.229,5.226-8.509,7.069
			l-0.215,0.174c-0.618,0.487-1.187,0.922-1.705,1.31l0.491-0.572c1.454-1.622,2.915-3.408,4.461-5.299l0.268-0.327
			c1.728-2.09,3.353-4.293,4.819-6.535c1.435-2.082,2.684-4.334,3.817-6.883c1.137-2.596,1.686-4.948,1.686-7.207
			c0-1.946-0.451-3.709-1.341-5.24c-0.839-1.446-1.95-2.655-3.304-3.594c-1.198-0.865-2.613-1.552-4.207-2.041
			c-0.036-0.011-0.072-0.021-0.108-0.031C211.923,56.764,210.459,56.564,208.926,56.564L208.926,56.564z"/>
	</g>
</g>
</svg>
