<?xml version="1.0" encoding="utf-8"?>
<!-- Generator: Adobe Illustrator 16.0.0, SVG Export Plug-In . SVG Version: 6.00 Build 0)  -->
<!DOCTYPE svg PUBLIC "-//W3C//DTD SVG 1.1//EN" "http://www.w3.org/Graphics/SVG/1.1/DTD/svg11.dtd">
<svg version="1.1" id="Layer_1" xmlns="http://www.w3.org/2000/svg" xmlns:xlink="http://www.w3.org/1999/xlink" x="0px" y="0px"
	 width="2479px" height="2500px" viewBox="0 0 2479 2500" enable-background="new 0 0 2479 2500" xml:space="preserve">
<g>
	<path fill="#1A3258" d="M2341.899,1808.436c-75.878,0-137.338,56.908-137.338,127.322c0,70.11,61.46,127.019,137.338,127.019
		c75.726,0,137.186-56.908,137.186-127.019C2479.085,1865.344,2417.624,1808.436,2341.899,1808.436L2341.899,1808.436z
		 M2341.899,2040.013c-62.22,0-112.602-46.74-112.602-104.255c0-57.667,50.382-104.407,112.602-104.407
		c62.219,0,112.449,46.74,112.449,104.407C2454.349,1993.272,2404.118,2040.013,2341.899,2040.013 M7.463,1824.977v408.826
		c0,228.391,142.042,266.329,261.017,266.329c176.035,0,257.527-114.271,257.527-268.605v-406.701H409.612v420.511
		c0,53.114-17.756,152.21-141.132,150.237c-112.298-1.973-132.785-103.193-132.785-168.296v-402.301H7.463z M1012.684,1851.686
		c0,0-74.359-36.117-158.887-36.117c-105.166,0-237.495,52.962-237.495,197.888c0,100.461,75.422,147.96,126.715,172.393
		c27.315,13.051,60.397,27.619,87.714,42.036c14.113,7.588,70.11,26.102,70.11,85.438c0,63.736-71.021,85.286-102.89,85.286
		c-113.512,0-190.907-50.687-190.907-50.687l11.989,127.474c0,0,46.437,23.219,185.292,23.522
		c132.481-0.455,227.935-84.072,227.935-199.102c0-88.473-61.461-140.979-114.119-166.02
		c-41.277-19.728-65.254-30.654-101.22-47.348c-35.966-16.692-73.146-45.374-73.146-89.838c0-47.651,44.615-81.947,110.021-81.947
		c96.516,0,135.213,42.795,158.887,56.148V1851.686z M1960.389,1823.915h-139.613l22.156,55.39l-217.009,568.32l-223.838-623.711
		h-139.614l22.156,55.391l-231.273,605.955h126.26l40.366-115.333h239.165l40.215,115.333h238.709l40.519-115.333H2017.6
		l40.367,115.333h139.918L1960.389,1823.915z M1251.393,2280.24l92.874-258.894l82.857,258.894H1251.393z M1809.849,2280.24
		l92.57-258.894l83.01,258.894H1809.849z"/>
	<g>
		<path fill="#1A3258" d="M2369.063,1939.552c0,0,27.315-9.257,27.315-33.993c0-24.888-25.039-38.849-55.693-38.849
			s-49.32,6.98-49.32,6.98v121.707h36.421v-44.464h10.927l38.545,44.008h46.285L2369.063,1939.552z M2344.631,1930.295h-16.845
			v-40.519c0,0,30.199-2.58,30.199,17.3C2357.985,1927.411,2344.631,1930.295,2344.631,1930.295z"/>
		<path fill="#1A3258" d="M115.664,1038.738c-58.122,0-115.333,42.491-115.333,42.491l-0.151-0.151l6.07,206.689
			c0,0,51.597-37.483,109.415-37.483c57.97,0,123.225,40.974,123.225,40.974l517.938,296.982l43.856-186.657l-561.794-322.326
			C238.889,1079.257,173.634,1038.738,115.664,1038.738z"/>
	</g>
	<path fill="#1A3258" d="M0.179,810.955l6.07,206.689c0,0,51.597-37.483,109.415-37.483c57.97,0,123.225,40.822,123.225,40.822
		l573.783,329.154l43.705-186.657l-617.64-354.347c0,0-64.951-40.67-123.073-40.67S0.331,810.955,0.331,810.955"/>
	<path fill="#1A3258" d="M0.179,540.832l6.07,206.689c0,0,51.597-37.635,109.415-37.635c57.97,0,123.225,40.974,123.225,40.974
		l629.78,361.175l43.705-186.657L238.889,539.012c0,0-65.254-40.519-123.225-40.519c-58.122,0-115.333,42.339-115.333,42.339"/>
	<path fill="#1A3258" d="M1079.607,211.981l57.666,243.869l788.819,452.229c0,0,61.915,40.67,122.921,40.67
		c61.005,0,115.484-42.491,115.484-42.491l-6.07-206.689c0,0-49.319,37.483-109.414,37.483c-60.247,0-122.921-40.822-122.921-40.822
		l-610.204-349.945l-42.188-156.762c0-6.677,6.07-9.712,8.347-10.167l103.192-31.869c13.962,0,22.005,11.837,22.005,21.701
		l5.463,11.23c3.794,1.973,19.272-5.463,20.335-6.07V112.43c0.004-42.744-34.644-77.398-77.387-77.402
		c-0.357,0-0.714,0.002-1.07,0.007h-103.193c0,0-15.175-34.904-59.032-34.904H996.294c-51.597,0-64.192,47.955-64.192,47.955
		L795.979,588.635l-557.09-319.594c0,0-60.398-40.974-123.225-40.974S0.331,270.558,0.331,270.558l5.918,206.841
		c0,0,46.437-37.483,109.263-37.483s123.376,40.974,123.376,40.974l685.474,392.892L1079.607,211.981z"/>
	<path fill="#1A3258" d="M1152.753,522.773l57.667,244.932l715.673,410.344c0,0,64.04,40.974,122.921,40.974
		s115.484-42.644,115.484-42.644l-5.918-206.688c0,0-45.83,37.483-109.566,37.483c-63.737,0-122.921-40.671-122.921-40.671
		L1152.753,522.773z"/>
	<path fill="#1A3258" d="M1226.05,834.933l57.667,245.083l642.376,368.155c0,0,64.04,40.822,122.921,40.822
		s115.484-42.491,115.484-42.491l-6.07-206.689c0,0-45.525,37.483-109.414,37.483c-63.737,0-122.921-40.67-122.921-40.67
		L1226.05,834.933z"/>
	<path fill="#1A3258" d="M1299.65,1147.395l57.363,244.628l569.079,326.271c0,0,64.04,40.974,122.921,40.974
		c58.729,0,115.484-42.643,115.484-42.643l-6.07-206.538c0,0-45.525,37.332-109.414,37.332s-122.921-40.822-122.921-40.822
		L1299.65,1147.395z"/>
</g>
</svg>
