<?xml version="1.0" encoding="utf-8"?>
<!-- Generator: Adobe Illustrator 16.0.0, SVG Export Plug-In . SVG Version: 6.00 Build 0)  -->
<!DOCTYPE svg PUBLIC "-//W3C//DTD SVG 1.1//EN" "http://www.w3.org/Graphics/SVG/1.1/DTD/svg11.dtd">
<svg version="1.1" id="Layer_1" xmlns="http://www.w3.org/2000/svg" xmlns:xlink="http://www.w3.org/1999/xlink" x="0px" y="0px"
	 width="81.102px" height="79.252px" viewBox="0 0 81.102 79.252" enable-background="new 0 0 81.102 79.252" xml:space="preserve">
<g>
	<g>
		<path fill="#F2662B" d="M21.465,49.483C15.012,58,13.813,68.126,13.813,68.126L26.96,54.979L21.465,49.483z"/>
		<path fill="#F78D2A" d="M26.96,54.979L13.813,68.126c0,0,10.126-1.199,18.642-7.653L26.96,54.979z"/>
	</g>
	<g>
		<path fill="#FEC40D" d="M22.916,50.682c-3.931,6.43-4.72,13.062-4.72,13.062l8.891-8.891L22.916,50.682z"/>
		<path fill="#FBAA19" d="M27.086,54.853l-8.891,8.891c0,0,6.631-0.79,13.062-4.721L27.086,54.853z"/>
	</g>
	<g>
		<g>
			<polygon fill="#EF4645" points="40.624,57.214 38.071,77.363 53.668,61.767 51.668,46.169 			"/>
			<polygon fill="#CC2527" points="47.039,50.799 40.624,57.214 38.919,70.671 48.375,61.216 			"/>
		</g>
		<g>
			<polygon fill="#EF4645" points="24.742,41.332 4.592,43.885 20.189,28.287 35.787,30.287 			"/>
			<polygon fill="#CC2527" points="31.156,34.917 24.741,41.331 11.285,43.037 20.74,33.582 			"/>
		</g>
	</g>
	<g>
		<path fill="#FCB717" d="M64.891,5.667c0.491-0.135,0.976-0.263,1.451-0.384C65.867,5.403,65.382,5.531,64.891,5.667z"/>
		<path fill="#FCB717" d="M57.084,8.304c1.354-0.55,2.691-1.04,3.997-1.478C59.776,7.264,58.438,7.754,57.084,8.304z"/>
		<path fill="#EE2D40" d="M67.048,5.107c0.7-0.17,1.381-0.326,2.037-0.467C68.429,4.781,67.749,4.937,67.048,5.107z"/>
		<path fill="#FFFFFF" d="M53.813,9.741c1.096-0.519,2.188-0.997,3.271-1.437C56.001,8.744,54.909,9.222,53.813,9.741z"/>
		<path fill="#DC283A" d="M78.467,5.928c-0.194,1.693-0.541,4.098-1.151,6.942C77.926,10.026,78.273,7.621,78.467,5.928z"/>
		<path fill="#DC283A" d="M77.316,12.871c-0.142,0.656-0.297,1.336-0.468,2.036C77.019,14.207,77.174,13.527,77.316,12.871z"/>
		<path fill="#FCB717" d="M54.566,49.356c-1.462,1.164-2.926,2.249-4.376,3.251C51.64,51.605,53.104,50.521,54.566,49.356z"/>
		<path fill="#FCB717" d="M52.17,10.552c0.547-0.281,1.095-0.551,1.643-0.811C53.265,10.001,52.717,10.271,52.17,10.552z"/>
		<path fill="#FCB717" d="M23.982,41.06c0.247-0.539,0.508-1.084,0.785-1.634C24.491,39.976,24.229,40.521,23.982,41.06z"/>
		<path fill="#FCB717" d="M75.129,20.874c-0.438,1.306-0.928,2.644-1.479,3.997C74.202,23.518,74.692,22.18,75.129,20.874z"/>
		<path fill="#FCB717" d="M44.194,56.317c-0.56,0.306-1.115,0.596-1.664,0.871C43.079,56.913,43.634,56.623,44.194,56.317z"/>
		<path fill="#FCB717" d="M29.348,31.766c1.002-1.451,2.087-2.913,3.25-4.376C31.436,28.853,30.35,30.315,29.348,31.766z"/>
		<path fill="#FCB717" d="M27.756,34.173c0.323-0.511,0.656-1.023,1.001-1.539C28.412,33.15,28.08,33.663,27.756,34.173z"/>
		<path fill="#FCB717" d="M24.767,39.426c0.276-0.55,0.566-1.104,0.871-1.664C25.333,38.321,25.043,38.876,24.767,39.426z"/>
		<path fill="#FCB717" d="M69.085,4.64c2.845-0.61,5.249-0.958,6.942-1.151C74.334,3.683,71.93,4.03,69.085,4.64z"/>
		<path fill="#FCB717" d="M64.891,5.667c-0.455,0.125-0.918,0.257-1.385,0.396l0,0C63.973,5.924,64.436,5.792,64.891,5.667z"/>
		<path fill="#FCB717" d="M78.467,5.928c0.194-1.692,0.235-2.675,0.235-2.675s-0.982,0.042-2.675,0.235
			c1.692-0.194,2.675-0.235,2.675-0.235S78.662,4.236,78.467,5.928z"/>
		<path fill="#FCB717" d="M73.651,24.871c-0.439,1.083-0.917,2.176-1.437,3.271C72.734,27.047,73.211,25.954,73.651,24.871z"/>
		<path fill="#FCB717" d="M63.506,6.063c-0.794,0.235-1.603,0.488-2.425,0.764C61.904,6.551,62.712,6.297,63.506,6.063L63.506,6.063
			z"/>
		<path fill="#FCB717" d="M52.17,10.552c-4.383,2.245-8.738,5.175-12.562,8.999c-2.572,2.572-4.917,5.206-7.01,7.839
			c2.093-2.633,4.438-5.267,7.01-7.839C43.433,15.727,47.788,12.796,52.17,10.552z"/>
		<path fill="#FCB717" d="M72.214,28.142c-0.26,0.548-0.529,1.096-0.81,1.644C71.685,29.238,71.955,28.69,72.214,28.142z"/>
		<path fill="#FCB717" d="M28.711,53.245l-6.762-6.762c0.278-0.981,0.621-1.995,1.024-3.037c-0.403,1.042-0.746,2.056-1.024,3.037
			l13.523,13.522c0.982-0.277,1.996-0.62,3.037-1.023c-1.042,0.403-2.055,0.746-3.037,1.023L28.711,53.245z"/>
		<path fill="#FCB717" d="M75.129,20.874c0.275-0.822,0.529-1.631,0.764-2.424l0,0C75.659,19.243,75.405,20.052,75.129,20.874z"/>
		<path fill="#FCB717" d="M62.405,42.348c-2.571,2.571-5.205,4.917-7.839,7.009C57.2,47.265,59.833,44.919,62.405,42.348
			c3.824-3.824,6.755-8.18,9-12.562C69.16,34.168,66.229,38.523,62.405,42.348z"/>
		<path fill="#FCB717" d="M75.893,18.45c0.288-0.972,0.548-1.92,0.78-2.836C76.441,16.53,76.181,17.478,75.893,18.45L75.893,18.45z"
			/>
		<path fill="#FCB717" d="M26.106,36.921c0.318-0.563,0.651-1.13,0.999-1.7C26.758,35.791,26.425,36.357,26.106,36.921z"/>
		<path fill="#FCB717" d="M27.105,35.221c0.211-0.348,0.43-0.697,0.651-1.047C27.535,34.523,27.316,34.873,27.105,35.221z"/>
		<path fill="#FFFFFF" d="M28.711,53.245L69.7,12.256l-6.193-6.194c-0.794,0.235-1.603,0.488-2.425,0.764
			c-1.306,0.438-2.644,0.928-3.997,1.478c-1.083,0.44-2.176,0.918-3.271,1.437c-0.548,0.26-1.096,0.529-1.643,0.811
			c-4.383,2.245-8.738,5.175-12.562,8.999c-2.572,2.572-4.917,5.206-7.01,7.839c-1.163,1.463-2.248,2.925-3.25,4.376
			c-0.2,0.291-0.396,0.58-0.591,0.869c-0.345,0.515-0.678,1.028-1.001,1.539c-0.222,0.35-0.44,0.699-0.651,1.047
			c-0.347,0.57-0.68,1.137-0.999,1.7c-0.16,0.282-0.316,0.563-0.468,0.841c-0.305,0.56-0.595,1.114-0.871,1.664
			c-0.276,0.55-0.538,1.095-0.785,1.634c-0.369,0.81-0.707,1.605-1.009,2.387c-0.403,1.042-0.746,2.056-1.024,3.037L28.711,53.245z"
			/>
		<path fill="#EF4645" d="M69.7,12.256l9.003-9.003c0,0-0.982,0.042-2.675,0.235C74.334,3.683,71.93,4.03,69.085,4.64
			c-0.656,0.141-1.337,0.296-2.037,0.467c-0.233,0.057-0.469,0.115-0.706,0.176c-0.476,0.121-0.96,0.249-1.451,0.384
			c-0.455,0.125-0.918,0.257-1.385,0.396L69.7,12.256z"/>
		<path fill="#F99B1C" d="M46.735,54.851c-0.57,0.348-1.137,0.681-1.7,0.999C45.598,55.531,46.165,55.198,46.735,54.851z"/>
		<path fill="#F99B1C" d="M49.321,53.198c-0.868,0.581-1.73,1.133-2.586,1.652C47.59,54.331,48.453,53.779,49.321,53.198z"/>
		<path fill="#DDDDDC" d="M71.405,29.786c0.28-0.548,0.55-1.096,0.81-1.644c0.52-1.095,0.997-2.188,1.437-3.271
			c0.551-1.354,1.041-2.691,1.479-3.997c0.275-0.822,0.529-1.631,0.764-2.424L69.7,12.256L28.711,53.245l6.761,6.761
			c0.982-0.277,1.996-0.62,3.037-1.023c1.302-0.504,2.646-1.104,4.021-1.794c0.549-0.275,1.104-0.565,1.664-0.871
			c0.279-0.152,0.559-0.308,0.841-0.468c0.563-0.318,1.13-0.651,1.7-0.999c0.855-0.52,1.718-1.071,2.586-1.652
			c0.289-0.194,0.579-0.391,0.869-0.591c1.45-1.002,2.914-2.087,4.376-3.251c2.634-2.092,5.268-4.438,7.839-7.009
			C66.229,38.523,69.16,34.168,71.405,29.786z"/>
		<path fill="#CC2527" d="M69.7,12.256l6.193,6.193c0.288-0.972,0.548-1.92,0.78-2.836c0.06-0.238,0.118-0.474,0.175-0.707
			c0.171-0.7,0.326-1.38,0.468-2.036c0.61-2.845,0.957-5.25,1.151-6.942c0.194-1.692,0.235-2.675,0.235-2.675L69.7,12.256z"/>
	</g>
	<g>
		<path fill="#FEC40D" d="M22.71,44.147c-0.291,0.797-0.545,1.576-0.761,2.336l6.762,6.762l1.548-1.549L22.71,44.147z"/>
		<path fill="#FBAA19" d="M37.808,59.245l-7.548-7.549l-1.548,1.549l6.761,6.761C36.232,59.791,37.012,59.536,37.808,59.245z"/>
	</g>
	<g>
		<polygon fill="#EF4645" points="22.054,46.379 17.26,48.468 25.375,56.581 28.815,53.141 		"/>
		<polygon fill="#CC2527" points="35.577,59.902 28.815,53.141 25.375,56.581 33.488,64.695 		"/>
	</g>
	<g>
		<g>
			<path fill="#FFFFFF" d="M61.238,20.718L46.175,35.781c4.16,4.16,10.904,4.161,15.064,0
				C65.398,31.622,65.397,24.877,61.238,20.718z"/>
			<path fill="#DDDDDC" d="M46.175,20.718c-4.16,4.16-4.16,10.903,0,15.063l15.063-15.063
				C57.078,16.558,50.334,16.558,46.175,20.718z"/>
		</g>
		<g>
			<g>
				<path fill="#16467C" d="M60.037,21.919c-3.496-3.496-9.164-3.496-12.66,0l6.33,6.331L60.037,21.919z"/>
				<path fill="#183965" d="M47.376,21.919L47.376,21.919c-3.497,3.496-3.496,9.164,0,12.661l6.33-6.33L47.376,21.919z"/>
			</g>
			<g>
				<path fill="#183965" d="M60.037,21.919l-6.33,6.331l6.33,6.33C63.533,31.083,63.533,25.416,60.037,21.919z"/>
				<path fill="#16467C" d="M53.707,28.25l-6.33,6.33c3.496,3.497,9.164,3.497,12.66,0l0,0L53.707,28.25z"/>
			</g>
		</g>
		<path fill="#FFFFFF" d="M52.181,23.878c-0.456,0.456-1.196,0.456-1.652,0l0,0c-0.456-0.456-0.456-1.196,0-1.652l1.181-1.18
			c0.456-0.456,1.195-0.456,1.651,0l0,0c0.456,0.456,0.456,1.196,0,1.652L52.181,23.878z"/>
	</g>
</g>
</svg>
